<svg xmlns="http://www.w3.org/2000/svg" id="Capa_1" enable-background="new 0 0 509.5 509.5" height="512" viewBox="0 0 509.5 509.5" width="512"><g><path d="m280.208 260.25c0-4.143-3.357-7.5-7.5-7.5s-7.5 3.357-7.5 7.5v52c0 4.143 3.357 7.5 7.5 7.5s7.5-3.357 7.5-7.5z"/><path d="m252.302 190.658c-17.985-17.997-41.909-27.908-67.364-27.908-52.532 0-95.271 42.737-95.271 95.27v4.23c0 4.143 3.357 7.5 7.5 7.5s7.5-3.357 7.5-7.5v-4.23c0-44.261 36.009-80.27 80.271-80.27 21.446 0 41.603 8.35 56.756 23.514 8.559 8.558 15.162 19.084 19.097 30.441 1.355 3.913 5.624 5.986 9.542 4.632 3.914-1.356 5.987-5.628 4.632-9.542-4.674-13.488-12.511-25.985-22.663-36.137z"/><path d="m105.092 364.752c-3.589 2.069-4.821 6.655-2.753 10.243 16.979 29.456 48.63 47.755 82.599 47.755 46.094 0 85.512-32.871 93.729-78.161.739-4.075-1.966-7.979-6.041-8.719-4.076-.74-7.979 1.966-8.719 6.041-6.921 38.149-40.133 65.839-78.97 65.839-28.623 0-55.293-15.421-69.603-40.245-2.068-3.59-6.655-4.82-10.242-2.753z"/><path d="m89.667 327.48c0 4.688.341 9.356 1.013 13.873.554 3.723 3.754 6.397 7.408 6.397.367 0 .739-.027 1.113-.083 4.097-.608 6.924-4.424 6.314-8.521-.563-3.788-.849-7.714-.849-11.666v-34.23c0-4.143-3.357-7.5-7.5-7.5s-7.5 3.357-7.5 7.5v34.23z"/><path d="m149.667 258.02v8.23c0 4.143 3.357 7.5 7.5 7.5s7.5-3.357 7.5-7.5v-8.23c0-11.177 9.094-20.27 20.271-20.27s20.27 9.093 20.27 20.27v32.23c0 4.143 3.357 7.5 7.5 7.5s7.5-3.357 7.5-7.5v-32.23c0-19.447-15.822-35.27-35.27-35.27s-35.271 15.822-35.271 35.27z"/><path d="m157.167 289.75c-4.143 0-7.5 3.357-7.5 7.5v30.23c0 19.447 15.822 35.27 35.271 35.27 19.447 0 35.27-15.822 35.27-35.27v-6.23c0-4.143-3.357-7.5-7.5-7.5s-7.5 3.357-7.5 7.5v6.23c0 11.177-9.093 20.27-20.27 20.27s-20.271-9.093-20.271-20.27v-30.23c0-4.143-3.357-7.5-7.5-7.5z"/><path d="m250.208 258.02c0-22.838-12.214-44.315-31.876-56.05-3.557-2.123-8.161-.961-10.284 2.597-2.123 3.557-.96 8.161 2.597 10.284 15.151 9.042 24.563 25.584 24.563 43.169v5.23c0 4.143 3.357 7.5 7.5 7.5s7.5-3.357 7.5-7.5z"/><path d="m184.28 192.76c-.028 0-.057 0-.085 0-35.581.396-64.527 29.671-64.527 65.26v40.23c0 4.143 3.357 7.5 7.5 7.5s7.5-3.357 7.5-7.5v-40.23c0-27.409 22.292-49.956 49.693-50.26 4.143-.047 7.463-3.441 7.417-7.583-.046-4.114-3.395-7.417-7.498-7.417z"/><path d="m126.973 321.753c-4.141.124-7.396 3.581-7.272 7.722.51 16.988 7.527 32.895 19.761 44.789 12.262 11.921 28.412 18.486 45.477 18.486 35.99 0 65.27-29.28 65.27-65.27v-33.23c0-4.143-3.357-7.5-7.5-7.5s-7.5 3.357-7.5 7.5v33.23c0 27.719-22.551 50.27-50.27 50.27-26.899 0-49.438-21.857-50.243-48.725-.125-4.139-3.537-7.408-7.723-7.272z"/><path d="m192.437 320.75v-56c0-4.143-3.357-7.5-7.5-7.5s-7.5 3.357-7.5 7.5v56c0 4.143 3.357 7.5 7.5 7.5s7.5-3.357 7.5-7.5z"/><path d="m334.781 415.35c-4.143 0-7.5 3.357-7.5 7.5v49.15c0 12.406-10.094 22.5-22.5 22.5h-239.691c-12.406 0-22.5-10.094-22.5-22.5v-336.13c0-4.143-3.357-7.5-7.5-7.5s-7.5 3.357-7.5 7.5v336.13c0 20.678 16.822 37.5 37.5 37.5h239.69c20.678 0 37.5-16.822 37.5-37.5v-49.15c.001-4.143-3.357-7.5-7.499-7.5z"/><path d="m84.438 458.25c0 4.143 3.357 7.5 7.5 7.5h186c4.143 0 7.5-3.357 7.5-7.5s-3.357-7.5-7.5-7.5h-186c-4.143 0-7.5 3.357-7.5 7.5z"/><path d="m380.16 167.663c-3.928 0-7.112 3.184-7.112 7.112s3.184 7.112 7.112 7.112 7.112-3.184 7.112-7.112-3.184-7.112-7.112-7.112z"/><path d="m380.264 47.363c-4.143 0-7.5 3.357-7.5 7.5v91.047c0 4.143 3.357 7.5 7.5 7.5s7.5-3.357 7.5-7.5v-91.047c0-4.142-3.357-7.5-7.5-7.5z"/><path d="m380.16 16.625c-14.22 0-27.765 2.937-40.068 8.228-5.207-14.542-19.119-24.853-35.311-24.853h-239.691c-20.678 0-37.5 16.822-37.5 37.5v63.37c0 4.143 3.357 7.5 7.5 7.5s7.5-3.357 7.5-7.5v-63.37c0-12.406 10.094-22.5 22.5-22.5h24.694v13.81c0 17.061 13.88 30.94 30.94 30.94h128.43c17.055 0 30.93-13.88 30.93-30.94v-13.81h24.696c10.445 0 19.311 7.147 21.8 16.912-28.894 17.97-48.171 50.005-48.171 86.463 0 36.753 19.588 69.015 48.871 86.9v182.575c0 4.143 3.357 7.5 7.5 7.5s7.5-3.357 7.5-7.5v-175.042c11.714 4.716 24.498 7.317 37.879 7.317 56.105 0 101.75-45.645 101.75-101.75s-45.644-101.75-101.749-101.75zm-115.076 12.185c0 8.79-7.146 15.94-15.93 15.94h-128.43c-8.79 0-15.94-7.15-15.94-15.94v-13.81h160.3zm115.076 176.315c-47.834 0-86.75-38.916-86.75-86.75s38.916-86.75 86.75-86.75 86.75 38.916 86.75 86.75-38.916 86.75-86.75 86.75z"/></g></svg>